<svg xmlns="http://www.w3.org/2000/svg" viewBox="0 0 92.51 28.01"><defs><style>.cls-1{fill:#eb6b31;}.cls-2{fill:#fff;}</style></defs><g id="Шар_2" data-name="Шар 2"><g id="Layer_1" data-name="Layer 1"><rect class="cls-1" width="92.51" height="28.01"/><path class="cls-2" d="M32.19,8a13.43,13.43,0,0,1,2.73-.26,4.57,4.57,0,0,1,3.17.89,2.57,2.57,0,0,1,1,2.14,2.85,2.85,0,0,1-1.95,2.66v0a3.08,3.08,0,0,1,2.38,3,3.34,3.34,0,0,1-1,2.43c-.81.78-2.11,1.14-4,1.14A16.84,16.84,0,0,1,32.19,20Zm1.5,5H35c1.58,0,2.51-.86,2.51-2,0-1.42-1-2-2.54-2a5.66,5.66,0,0,0-1.32.11Zm0,5.82a8.09,8.09,0,0,0,1.25.07c1.54,0,3-.59,3-2.36s-1.36-2.34-3-2.34H33.69Z"/><path class="cls-2" d="M43,7.87v7.19c0,2.72,1.15,3.87,2.7,3.87,1.71,0,2.81-1.19,2.81-3.87V7.87H50V15c0,3.73-1.87,5.26-4.37,5.26S41.48,18.78,41.48,15V7.87Z"/><path class="cls-2" d="M55.16,20V14.86l-3.65-7h1.7l1.63,3.35c.44.92.79,1.66,1.15,2.5h0c.33-.79.72-1.58,1.17-2.5l1.66-3.35h1.7l-3.88,7V20Z"/></g></g></svg>