<svg xmlns="http://www.w3.org/2000/svg" viewBox="0 0 44.01 44.01"><defs><style>.cls-1{fill:#eb6b31;}.cls-2{fill:#fff;fill-rule:evenodd;}</style></defs><g id="Шар_2" data-name="Шар 2"><g id="Layer_1" data-name="Layer 1"><circle class="cls-1" cx="22" cy="22" r="22" transform="translate(-9.11 22) rotate(-45)"/><path class="cls-2" d="M18.55,28.64q0-3.09,0-6.17c0-.35-.09-.46-.44-.45-.64,0-1.29,0-1.93,0-.26,0-.35-.07-.35-.34,0-1.29,0-2.57,0-3.86,0-.25.07-.33.32-.32.66,0,1.32,0,2,0,.38,0,.46-.11.45-.47,0-1,0-1.95,0-2.93a5.65,5.65,0,0,1,1.06-3.28A4.58,4.58,0,0,1,23.3,9c1.51-.07,3,0,4.55-.05.21,0,.28.08.28.28q0,1.95,0,3.9c0,.23-.08.3-.3.3H25.64A1.44,1.44,0,0,0,24,14.88c-.05.77,0,1.55,0,2.32,0,.28.16.26.34.26,1.11,0,2.22,0,3.33,0,.33,0,.43.07.4.41-.14,1.29-.26,2.59-.37,3.88,0,.29-.16.35-.43.34H24.64c-.63,0-.57-.09-.57.55,0,4,0,8.06,0,12.09,0,.43-.11.53-.53.53-1.5,0-3,0-4.51,0-.43,0-.5-.14-.49-.52C18.56,32.7,18.55,30.67,18.55,28.64Z"/></g></g></svg>