<svg xmlns="http://www.w3.org/2000/svg" viewBox="0 0 276.12 397.09"><defs><style>.cls-1{fill:#f0eb77;}.cls-2,.cls-7,.cls-8{fill:none;stroke-miterlimit:10;}.cls-2{stroke:#434547;}.cls-2,.cls-8{stroke-width:0.5px;}.cls-3{fill:#030304;}.cls-4{opacity:0.5;}.cls-5{fill:#383a3b;}.cls-6{fill:#92c2e1;}.cls-7,.cls-8{stroke:#515356;}.cls-7{stroke-width:0.62px;}</style></defs><g id="Шар_2" data-name="Шар 2"><g id="Layer_1" data-name="Layer 1"><path class="cls-1" d="M276.09,382.33l-144-40.18a41.61,41.61,0,0,0-10-1.06H49.37V296.45h74.44a50.18,50.18,0,0,0,12-1.64l140.28-39.26m0,48.18c-32.11,6-68,12.66-95.59,15.37v1.45c26.27,3.56,62.84,10.41,95.59,16.26"/><circle class="cls-2" cx="212.72" cy="365.13" r="9.26"/><circle class="cls-2" cx="212.72" cy="365.13" r="13.64"/><line class="cls-2" x1="212.72" y1="333.72" x2="212.72" y2="397.09"/><line class="cls-2" x1="263.94" y1="365.13" x2="162.92" y2="365.13"/><rect class="cls-3" x="15.06" y="332.87" width="19.93" height="19.93"/><g class="cls-4"><path class="cls-5" d="M141.88,12.22V5.54h-1.09V4.46h1.09V4.09a3.62,3.62,0,0,1,.9-2.7,2.64,2.64,0,0,1,1.89-.72,3.33,3.33,0,0,1,1.2.22L145.68,2a2.06,2.06,0,0,0-.9-.18c-1.2,0-1.51,1.06-1.51,2.25v.41h1.88V5.54h-1.88v6.68Z"/><path class="cls-5" d="M153.22,8.28a3.78,3.78,0,0,1-3.86,4.11,3.68,3.68,0,0,1-3.71-4,3.78,3.78,0,0,1,3.84-4.11A3.67,3.67,0,0,1,153.22,8.28Zm-6.15.08c0,1.69,1,3,2.36,3s2.35-1.27,2.35-3c0-1.31-.65-3-2.32-3S147.07,6.88,147.07,8.36Z"/><path class="cls-5" d="M155,6.88c0-.91,0-1.7-.07-2.42h1.24l0,1.53h.07a2.31,2.31,0,0,1,2.14-1.7,1.59,1.59,0,0,1,.4,0V5.67a1.68,1.68,0,0,0-.48,0,2,2,0,0,0-1.89,1.81,4.12,4.12,0,0,0-.06.65v4.14H155Z"/><path class="cls-5" d="M166.57,12.22V7l-3.86-7h1.79l1.73,3.37c.47.93.83,1.67,1.21,2.52h0c.34-.8.76-1.59,1.23-2.52L170.47,0h1.79l-4.09,7v5.2Z"/><path class="cls-5" d="M180.17,7.76a4.29,4.29,0,0,1-4.37,4.66,4.17,4.17,0,0,1-4.21-4.52c0-2.93,1.92-4.65,4.35-4.65S180.17,5.08,180.17,7.76Zm-7,.09c0,1.92,1.1,3.37,2.66,3.37s2.67-1.43,2.67-3.41c0-1.48-.75-3.37-2.63-3.37S173.21,6.18,173.21,7.85Z"/><path class="cls-5" d="M189.52,9.83c0,.9,0,1.7.08,2.39h-1.42l-.09-1.43h0a3.3,3.3,0,0,1-2.9,1.63c-1.37,0-3-.76-3-3.85V3.44h1.59V8.3c0,1.67.51,2.79,2,2.79a2.26,2.26,0,0,0,2.25-2.26V3.44h1.59Z"/></g><path class="cls-6" d="M276.07,160.31a25.53,25.53,0,0,0-8.22-3.48c-10.66-4.06-20.58,1.39-29.14,7.52-7.1,5.18-5.12,12.18-12.29,7.68-9-6.28-6.88-6.94-9.66-18.32-3.54-18.67,10-33.6,25.56-41.79,6.16-3.59,12.07-7.52,15.67-13.88,19.85-29.3-20.13-48.91-41.37-29.05C209.3,76.15,206.3,86.26,206,96.32c-.25,13.11-9.12,36.85-23.48,37.56-18,.89-24.08-15.22-21.06-28,1.19-5,2.2-10.14,2.89-15.26,2.23-13.59-15.83-22-26-13.75-12.61,8.58-2.44,23.17,1.78,33.67,4.91,16-17.44,17.61-25.68,8.49-15.32-15.09-21-37-31.31-55.49-2.94-6-6.23-11.83-11.63-16.1a45.19,45.19,0,0,0-20.56-9.38C26.36,34.64,11.38,69.25,33.86,83.47c15.35,12,24.64,12,40.29,25.51,4.29,3.7,14.78,15.37,5.08,27.24-8.37,10.25-22.61,10.72-37.43-.7-7.76-6-23.58-5.86-19.17,10.34,2.37,8.69,13.73,11.26,20.74,12.56,5.65,1.41,20-.39,15.41,9.44-4.47,11.41-17.1,7.28-26.33,5.8-37.06-11.58-40.83,29.54-19.16,33a47.3,47.3,0,0,0,27.64-3c5.42-2.35,10.8-4.76,16.27-7,11.42-5,26.39,7.32,15,18-4.59,4.07-10.64,7.1-14.15,12.23-5,8.22.14,20.5,9.72,24.11,11,3.34,22.55.67,33.82,1.3,9.54-.23,18.12,9.56,12.74,18.76-2.5,4.82-5.55,9.35-8.06,14.16-6.8,13-1.42,23.48,10.93,30.38,3.51,2,7.2,1.19,10.51-.63,23.56-11.48,11.52-34.06,31.34-46.81,10.82-8.37,21.79-13.24,32.92-4.24,11.78,10.06,3.16,31.65,29,31.22,5.69-.38,8.52-4,11-8.25,3.92-6.83,3-12.68-2.87-18-2.92-2.67-6.2-5-8.92-7.83-6.36-8.26-5-20.22-2.21-29.71,3.93-13.82,9.26-30.86,26.61-30.77,10.17-.83,22.79,1.36,31.46-4.11"/><line class="cls-7" x1="134.57" y1="208.31" x2="134.57" y2="215.32"/><line class="cls-7" x1="138.07" y1="211.82" x2="131.07" y2="211.82"/><line class="cls-7" x1="153.23" y1="208.31" x2="153.23" y2="215.32"/><line class="cls-7" x1="156.73" y1="211.82" x2="149.73" y2="211.82"/><line class="cls-7" x1="171.89" y1="208.31" x2="171.89" y2="215.32"/><line class="cls-7" x1="175.39" y1="211.82" x2="168.39" y2="211.82"/><line class="cls-7" x1="190.55" y1="208.31" x2="190.55" y2="215.32"/><line class="cls-7" x1="194.05" y1="211.82" x2="187.05" y2="211.82"/><line class="cls-7" x1="209.21" y1="208.31" x2="209.21" y2="215.32"/><line class="cls-7" x1="212.71" y1="211.82" x2="205.7" y2="211.82"/><line class="cls-7" x1="227.87" y1="208.31" x2="227.87" y2="215.32"/><line class="cls-7" x1="231.37" y1="211.82" x2="224.36" y2="211.82"/><line class="cls-7" x1="246.52" y1="208.31" x2="246.52" y2="215.32"/><line class="cls-7" x1="250.03" y1="211.82" x2="243.02" y2="211.82"/><line class="cls-7" x1="134.57" y1="225.33" x2="134.57" y2="232.33"/><line class="cls-7" x1="138.07" y1="228.83" x2="131.07" y2="228.83"/><line class="cls-7" x1="153.23" y1="225.33" x2="153.23" y2="232.33"/><line class="cls-7" x1="156.73" y1="228.83" x2="149.73" y2="228.83"/><line class="cls-7" x1="171.89" y1="225.33" x2="171.89" y2="232.33"/><line class="cls-7" x1="175.39" y1="228.83" x2="168.39" y2="228.83"/><line class="cls-7" x1="190.55" y1="225.33" x2="190.55" y2="232.33"/><line class="cls-7" x1="194.05" y1="228.83" x2="187.05" y2="228.83"/><line class="cls-7" x1="209.21" y1="225.33" x2="209.21" y2="232.33"/><line class="cls-7" x1="212.71" y1="228.83" x2="205.7" y2="228.83"/><line class="cls-7" x1="227.87" y1="225.33" x2="227.87" y2="232.33"/><line class="cls-7" x1="231.37" y1="228.83" x2="224.36" y2="228.83"/><line class="cls-7" x1="246.52" y1="225.33" x2="246.52" y2="232.33"/><line class="cls-7" x1="250.03" y1="228.83" x2="243.02" y2="228.83"/><line class="cls-7" x1="134.57" y1="242.35" x2="134.57" y2="249.35"/><line class="cls-7" x1="138.07" y1="245.85" x2="131.07" y2="245.85"/><line class="cls-7" x1="153.23" y1="242.35" x2="153.23" y2="249.35"/><line class="cls-7" x1="156.73" y1="245.85" x2="149.73" y2="245.85"/><line class="cls-7" x1="171.89" y1="242.35" x2="171.89" y2="249.35"/><line class="cls-7" x1="175.39" y1="245.85" x2="168.39" y2="245.85"/><line class="cls-7" x1="190.55" y1="242.35" x2="190.55" y2="249.35"/><line class="cls-7" x1="194.05" y1="245.85" x2="187.05" y2="245.85"/><line class="cls-7" x1="209.21" y1="242.35" x2="209.21" y2="249.35"/><line class="cls-7" x1="212.71" y1="245.85" x2="205.7" y2="245.85"/><line class="cls-7" x1="227.87" y1="242.35" x2="227.87" y2="249.35"/><line class="cls-7" x1="231.37" y1="245.85" x2="224.36" y2="245.85"/><line class="cls-7" x1="246.52" y1="242.35" x2="246.52" y2="249.35"/><line class="cls-7" x1="250.03" y1="245.85" x2="243.02" y2="245.85"/><line class="cls-7" x1="134.57" y1="259.36" x2="134.57" y2="266.37"/><line class="cls-7" x1="138.07" y1="262.87" x2="131.07" y2="262.87"/><line class="cls-7" x1="153.23" y1="259.36" x2="153.23" y2="266.37"/><line class="cls-7" x1="156.73" y1="262.87" x2="149.73" y2="262.87"/><line class="cls-7" x1="171.89" y1="259.36" x2="171.89" y2="266.37"/><line class="cls-7" x1="175.39" y1="262.87" x2="168.39" y2="262.87"/><line class="cls-7" x1="190.55" y1="259.36" x2="190.55" y2="266.37"/><line class="cls-7" x1="194.05" y1="262.87" x2="187.05" y2="262.87"/><line class="cls-7" x1="209.21" y1="259.36" x2="209.21" y2="266.37"/><line class="cls-7" x1="212.71" y1="262.87" x2="205.7" y2="262.87"/><line class="cls-7" x1="227.87" y1="259.36" x2="227.87" y2="266.37"/><line class="cls-7" x1="231.37" y1="262.87" x2="224.36" y2="262.87"/><line class="cls-7" x1="246.52" y1="259.36" x2="246.52" y2="266.37"/><line class="cls-7" x1="250.03" y1="262.87" x2="243.02" y2="262.87"/><line class="cls-7" x1="134.57" y1="276.38" x2="134.57" y2="283.39"/><line class="cls-7" x1="138.07" y1="279.88" x2="131.07" y2="279.88"/><line class="cls-7" x1="153.23" y1="276.38" x2="153.23" y2="283.39"/><line class="cls-7" x1="156.73" y1="279.88" x2="149.73" y2="279.88"/><line class="cls-7" x1="171.89" y1="276.38" x2="171.89" y2="283.39"/><line class="cls-7" x1="175.39" y1="279.88" x2="168.39" y2="279.88"/><line class="cls-7" x1="190.55" y1="276.38" x2="190.55" y2="283.39"/><line class="cls-7" x1="194.05" y1="279.88" x2="187.05" y2="279.88"/><line class="cls-7" x1="209.21" y1="276.38" x2="209.21" y2="283.39"/><line class="cls-7" x1="212.71" y1="279.88" x2="205.7" y2="279.88"/><line class="cls-7" x1="227.87" y1="276.38" x2="227.87" y2="283.39"/><line class="cls-7" x1="231.37" y1="279.88" x2="224.36" y2="279.88"/><line class="cls-7" x1="246.52" y1="276.38" x2="246.52" y2="283.39"/><line class="cls-7" x1="250.03" y1="279.88" x2="243.02" y2="279.88"/><line class="cls-7" x1="134.57" y1="293.4" x2="134.57" y2="300.4"/><line class="cls-7" x1="138.07" y1="296.9" x2="131.07" y2="296.9"/><line class="cls-7" x1="153.23" y1="293.4" x2="153.23" y2="300.4"/><line class="cls-7" x1="156.73" y1="296.9" x2="149.73" y2="296.9"/><line class="cls-7" x1="171.89" y1="293.4" x2="171.89" y2="300.4"/><line class="cls-7" x1="175.39" y1="296.9" x2="168.39" y2="296.9"/><line class="cls-7" x1="190.55" y1="293.4" x2="190.55" y2="300.4"/><line class="cls-7" x1="194.05" y1="296.9" x2="187.05" y2="296.9"/><line class="cls-7" x1="209.21" y1="293.4" x2="209.21" y2="300.4"/><line class="cls-7" x1="212.71" y1="296.9" x2="205.7" y2="296.9"/><line class="cls-7" x1="227.87" y1="293.4" x2="227.87" y2="300.4"/><line class="cls-7" x1="231.37" y1="296.9" x2="224.36" y2="296.9"/><line class="cls-7" x1="246.52" y1="293.4" x2="246.52" y2="300.4"/><line class="cls-7" x1="250.03" y1="296.9" x2="243.02" y2="296.9"/><line class="cls-7" x1="134.57" y1="310.41" x2="134.57" y2="317.42"/><line class="cls-7" x1="138.07" y1="313.92" x2="131.07" y2="313.92"/><line class="cls-7" x1="153.23" y1="310.41" x2="153.23" y2="317.42"/><line class="cls-7" x1="156.73" y1="313.92" x2="149.73" y2="313.92"/><line class="cls-7" x1="171.89" y1="310.41" x2="171.89" y2="317.42"/><line class="cls-7" x1="175.39" y1="313.92" x2="168.39" y2="313.92"/><line class="cls-7" x1="190.55" y1="310.41" x2="190.55" y2="317.42"/><line class="cls-7" x1="194.05" y1="313.92" x2="187.05" y2="313.92"/><line class="cls-7" x1="209.21" y1="310.41" x2="209.21" y2="317.42"/><line class="cls-7" x1="212.71" y1="313.92" x2="205.7" y2="313.92"/><line class="cls-7" x1="227.87" y1="310.41" x2="227.87" y2="317.42"/><line class="cls-7" x1="231.37" y1="313.92" x2="224.36" y2="313.92"/><line class="cls-7" x1="246.52" y1="310.41" x2="246.52" y2="317.42"/><line class="cls-7" x1="250.03" y1="313.92" x2="243.02" y2="313.92"/><line class="cls-2" x1="236.2" y1="86.1" x2="173.72" y2="23.62"/><line class="cls-8" x1="173.72" y1="23.62" x2="173.72" y2="45.01"/><line class="cls-8" x1="195.1" y1="23.62" x2="173.72" y2="23.62"/></g></g></svg>