<svg xmlns="http://www.w3.org/2000/svg" viewBox="0 0 44.01 44.01"><defs><style>.cls-1{fill:#eb6b31;}.cls-2{fill:#fff;}</style></defs><g id="Шар_2" data-name="Шар 2"><g id="Layer_1" data-name="Layer 1"><circle class="cls-1" cx="22" cy="22" r="22"/><path class="cls-2" d="M31,8.83H13A4.14,4.14,0,0,0,8.83,13V31A4.15,4.15,0,0,0,13,35.18H31A4.15,4.15,0,0,0,35.18,31V13A4.14,4.14,0,0,0,31,8.83Zm-2.8,3.05h3.32a.57.57,0,0,1,.58.57v3.32a.57.57,0,0,1-.57.57H28.25a.56.56,0,0,1-.57-.57l0-3.32A.57.57,0,0,1,28.23,11.88ZM18,19.74a4,4,0,0,1,.27-.44,4.63,4.63,0,0,1,7.52,0c.1.14.19.29.28.44a4.57,4.57,0,0,1,.6,2.26,4.64,4.64,0,1,1-9.27,0A4.37,4.37,0,0,1,18,19.74ZM32.61,30.09a2.52,2.52,0,0,1-2.53,2.52H13.92a2.52,2.52,0,0,1-2.52-2.52V19.3h3.93c-.1.24-.18.49-.26.74a7,7,0,0,0-.27,2,7.21,7.21,0,1,0,14.41,0,7,7,0,0,0-.28-2c-.07-.25-.16-.5-.25-.74h3.93Z"/></g></g></svg>