<svg xmlns="http://www.w3.org/2000/svg" viewBox="0 0 157.97 318.74"><defs><style>.cls-1{fill:#e589b6;}.cls-2,.cls-6{fill:none;stroke:#515356;stroke-miterlimit:10;}.cls-2{stroke-width:0.59px;}.cls-3{fill:#92c2e1;}.cls-4{fill:#f0eb77;}.cls-5{fill:#434547;}.cls-6{stroke-width:0.62px;}.cls-7{opacity:0.5;font-size:12px;fill:#383a3b;font-family:CalifornianFB-Bold, CalifornianFB Bold;font-weight:700;}.cls-8{letter-spacing:-0.01em;}.cls-9{letter-spacing:0em;}.cls-10{letter-spacing:-0.01em;}.cls-11{letter-spacing:0em;}</style></defs><g id="Шар_2" data-name="Шар 2"><g id="Layer_1" data-name="Layer 1"><path class="cls-1" d="M.2,298.92h124V246.67c-41.87-5.84-81.8-12.15-109.3-15.08v-.78c25.73-2.17,73.17-7.73,109.3-12.68V165.67H0v33.15c31.52-.11,68.82-1,89.66-1.41v1.17C69,200.88,34,204.61.08,208.15l0,45.64c33,3.73,67.4,7.44,89.12,9.71v1c-20.09-.41-71.62-.67-89-.74"/><line class="cls-2" x1="151.79" y1="298.28" x2="157.76" y2="292.02"/><line class="cls-2" x1="145.53" y1="292.31" x2="151.79" y2="298.28"/><rect class="cls-1" x="6.63" y="83.64" width="23.66" height="23.66"/><rect class="cls-3" x="6.63" y="55.76" width="23.66" height="23.66"/><rect class="cls-4" x="6.63" y="27.88" width="23.66" height="23.66"/><rect class="cls-5" x="6.63" width="23.66" height="23.66"/><line class="cls-6" x1="39.69" y1="86.13" x2="39.69" y2="93.13"/><line class="cls-6" x1="43.19" y1="89.63" x2="36.19" y2="89.63"/><line class="cls-6" x1="58.35" y1="86.13" x2="58.35" y2="93.13"/><line class="cls-6" x1="61.85" y1="89.63" x2="54.85" y2="89.63"/><line class="cls-6" x1="77.01" y1="86.13" x2="77.01" y2="93.13"/><line class="cls-6" x1="80.51" y1="89.63" x2="73.51" y2="89.63"/><line class="cls-6" x1="95.67" y1="86.13" x2="95.67" y2="93.13"/><line class="cls-6" x1="99.17" y1="89.63" x2="92.16" y2="89.63"/><line class="cls-6" x1="114.33" y1="86.13" x2="114.33" y2="93.13"/><line class="cls-6" x1="117.83" y1="89.63" x2="110.82" y2="89.63"/><line class="cls-6" x1="132.98" y1="86.13" x2="132.98" y2="93.13"/><line class="cls-6" x1="136.49" y1="89.63" x2="129.48" y2="89.63"/><line class="cls-6" x1="151.64" y1="86.13" x2="151.64" y2="93.13"/><line class="cls-6" x1="155.15" y1="89.63" x2="148.14" y2="89.63"/><line class="cls-6" x1="39.69" y1="103.14" x2="39.69" y2="110.15"/><line class="cls-6" x1="43.19" y1="106.64" x2="36.19" y2="106.64"/><line class="cls-6" x1="58.35" y1="103.14" x2="58.35" y2="110.15"/><line class="cls-6" x1="61.85" y1="106.64" x2="54.85" y2="106.64"/><line class="cls-6" x1="77.01" y1="103.14" x2="77.01" y2="110.15"/><line class="cls-6" x1="80.51" y1="106.64" x2="73.51" y2="106.64"/><line class="cls-6" x1="95.67" y1="103.14" x2="95.67" y2="110.15"/><line class="cls-6" x1="99.17" y1="106.64" x2="92.16" y2="106.64"/><line class="cls-6" x1="114.33" y1="103.14" x2="114.33" y2="110.15"/><line class="cls-6" x1="117.83" y1="106.64" x2="110.82" y2="106.64"/><line class="cls-6" x1="132.98" y1="103.14" x2="132.98" y2="110.15"/><line class="cls-6" x1="136.49" y1="106.64" x2="129.48" y2="106.64"/><line class="cls-6" x1="151.64" y1="103.14" x2="151.64" y2="110.15"/><line class="cls-6" x1="155.15" y1="106.64" x2="148.14" y2="106.64"/><line class="cls-6" x1="39.69" y1="120.16" x2="39.69" y2="127.16"/><line class="cls-6" x1="43.19" y1="123.66" x2="36.19" y2="123.66"/><line class="cls-6" x1="58.35" y1="120.16" x2="58.35" y2="127.16"/><line class="cls-6" x1="61.85" y1="123.66" x2="54.85" y2="123.66"/><line class="cls-6" x1="77.01" y1="120.16" x2="77.01" y2="127.16"/><line class="cls-6" x1="80.51" y1="123.66" x2="73.51" y2="123.66"/><line class="cls-6" x1="95.67" y1="120.16" x2="95.67" y2="127.16"/><line class="cls-6" x1="99.17" y1="123.66" x2="92.16" y2="123.66"/><line class="cls-6" x1="114.33" y1="120.16" x2="114.33" y2="127.16"/><line class="cls-6" x1="117.83" y1="123.66" x2="110.82" y2="123.66"/><line class="cls-6" x1="132.98" y1="120.16" x2="132.98" y2="127.16"/><line class="cls-6" x1="136.49" y1="123.66" x2="129.48" y2="123.66"/><line class="cls-6" x1="151.64" y1="120.16" x2="151.64" y2="127.16"/><line class="cls-6" x1="155.15" y1="123.66" x2="148.14" y2="123.66"/><line class="cls-6" x1="39.69" y1="137.18" x2="39.69" y2="144.18"/><line class="cls-6" x1="43.19" y1="140.68" x2="36.19" y2="140.68"/><line class="cls-6" x1="58.35" y1="137.18" x2="58.35" y2="144.18"/><line class="cls-6" x1="61.85" y1="140.68" x2="54.85" y2="140.68"/><line class="cls-6" x1="77.01" y1="137.18" x2="77.01" y2="144.18"/><line class="cls-6" x1="80.51" y1="140.68" x2="73.51" y2="140.68"/><line class="cls-6" x1="95.67" y1="137.18" x2="95.67" y2="144.18"/><line class="cls-6" x1="99.17" y1="140.68" x2="92.16" y2="140.68"/><line class="cls-6" x1="114.33" y1="137.18" x2="114.33" y2="144.18"/><line class="cls-6" x1="117.83" y1="140.68" x2="110.82" y2="140.68"/><line class="cls-6" x1="132.98" y1="137.18" x2="132.98" y2="144.18"/><line class="cls-6" x1="136.49" y1="140.68" x2="129.48" y2="140.68"/><line class="cls-6" x1="151.64" y1="137.18" x2="151.64" y2="144.18"/><line class="cls-6" x1="155.15" y1="140.68" x2="148.14" y2="140.68"/><line class="cls-6" x1="39.69" y1="154.19" x2="39.69" y2="161.2"/><line class="cls-6" x1="43.19" y1="157.7" x2="36.19" y2="157.7"/><line class="cls-6" x1="58.35" y1="154.19" x2="58.35" y2="161.2"/><line class="cls-6" x1="61.85" y1="157.7" x2="54.85" y2="157.7"/><line class="cls-6" x1="77.01" y1="154.19" x2="77.01" y2="161.2"/><line class="cls-6" x1="80.51" y1="157.7" x2="73.51" y2="157.7"/><line class="cls-6" x1="95.67" y1="154.19" x2="95.67" y2="161.2"/><line class="cls-6" x1="99.17" y1="157.7" x2="92.16" y2="157.7"/><line class="cls-6" x1="114.33" y1="154.19" x2="114.33" y2="161.2"/><line class="cls-6" x1="117.83" y1="157.7" x2="110.82" y2="157.7"/><line class="cls-6" x1="132.98" y1="154.19" x2="132.98" y2="161.2"/><line class="cls-6" x1="136.49" y1="157.7" x2="129.48" y2="157.7"/><line class="cls-6" x1="151.64" y1="154.19" x2="151.64" y2="161.2"/><line class="cls-6" x1="155.15" y1="157.7" x2="148.14" y2="157.7"/><line class="cls-6" x1="39.69" y1="171.21" x2="39.69" y2="178.21"/><line class="cls-6" x1="43.19" y1="174.71" x2="36.19" y2="174.71"/><line class="cls-6" x1="58.35" y1="171.21" x2="58.35" y2="178.21"/><line class="cls-6" x1="61.85" y1="174.71" x2="54.85" y2="174.71"/><line class="cls-6" x1="77.01" y1="171.21" x2="77.01" y2="178.21"/><line class="cls-6" x1="80.51" y1="174.71" x2="73.51" y2="174.71"/><line class="cls-6" x1="95.67" y1="171.21" x2="95.67" y2="178.21"/><line class="cls-6" x1="99.17" y1="174.71" x2="92.16" y2="174.71"/><line class="cls-6" x1="114.33" y1="171.21" x2="114.33" y2="178.21"/><line class="cls-6" x1="117.83" y1="174.71" x2="110.82" y2="174.71"/><line class="cls-6" x1="132.98" y1="171.21" x2="132.98" y2="178.21"/><line class="cls-6" x1="136.49" y1="174.71" x2="129.48" y2="174.71"/><line class="cls-6" x1="151.64" y1="171.21" x2="151.64" y2="178.21"/><line class="cls-6" x1="155.15" y1="174.71" x2="148.14" y2="174.71"/><line class="cls-6" x1="39.69" y1="188.23" x2="39.69" y2="195.23"/><line class="cls-6" x1="43.19" y1="191.73" x2="36.19" y2="191.73"/><line class="cls-6" x1="58.35" y1="188.23" x2="58.35" y2="195.23"/><line class="cls-6" x1="61.85" y1="191.73" x2="54.85" y2="191.73"/><line class="cls-6" x1="77.01" y1="188.23" x2="77.01" y2="195.23"/><line class="cls-6" x1="80.51" y1="191.73" x2="73.51" y2="191.73"/><line class="cls-6" x1="95.67" y1="188.23" x2="95.67" y2="195.23"/><line class="cls-6" x1="99.17" y1="191.73" x2="92.16" y2="191.73"/><line class="cls-6" x1="114.33" y1="188.23" x2="114.33" y2="195.23"/><line class="cls-6" x1="117.83" y1="191.73" x2="110.82" y2="191.73"/><line class="cls-6" x1="132.98" y1="188.23" x2="132.98" y2="195.23"/><line class="cls-6" x1="136.49" y1="191.73" x2="129.48" y2="191.73"/><line class="cls-6" x1="151.64" y1="188.23" x2="151.64" y2="195.23"/><line class="cls-6" x1="155.15" y1="191.73" x2="148.14" y2="191.73"/><text class="cls-7" transform="translate(92.16 315.74)">sc<tspan class="cls-8" x="10.13" y="0">r</tspan><tspan x="13.93" y="0">oll </tspan><tspan class="cls-9" x="28.73" y="0">D</tspan><tspan class="cls-10" x="36.77" y="0">o</tspan><tspan class="cls-11" x="43.27" y="0">wn</tspan></text></g></g></svg>