<svg xmlns="http://www.w3.org/2000/svg" viewBox="0 0 289.92 115.12"><defs><style>.cls-1{fill:#23b07a;}.cls-2{fill:#215132;}.cls-3{fill:#2cb280;}.cls-4{fill:#fff;}.cls-10,.cls-5{font-size:12.84px;fill:#383a3b;}.cls-11,.cls-5{font-family:MyriadPro-Semibold, MyriadPro Semibold;font-weight:600;}.cls-6{letter-spacing:-0.02em;}.cls-7{letter-spacing:-0.01em;}.cls-8{letter-spacing:0em;}.cls-9{letter-spacing:0em;}.cls-10{font-family:MyriadPro-Regular, Myriad Pro;}.cls-11{letter-spacing:0em;}.cls-12{letter-spacing:-0.01em;}.cls-13{fill:none;stroke:#434547;stroke-miterlimit:10;stroke-width:0.5px;}</style></defs><g id="Шар_2" data-name="Шар 2"><g id="Layer_1" data-name="Layer 1"><path d="M127,38.11h22.36v4.16h-8.81V65.74H135.7V42.27h-8.77Zm21.4,7.63h4.13V49.6h.07a5.13,5.13,0,0,1,.77-1.58,6.25,6.25,0,0,1,1.37-1.4,6,6,0,0,1,1.77-1,5,5,0,0,1,2-.41c.51,0,.88,0,1.07,0a2.88,2.88,0,0,0,.59.07v4.24a9.19,9.19,0,0,0-1-.15c-.33,0-.63-.07-1-.07a5.17,5.17,0,0,0-2.1.44A5.41,5.41,0,0,0,154.34,51a6.86,6.86,0,0,0-1.18,2.14,9.15,9.15,0,0,0-.44,3v9.5H148.3Zm32,20H176v-2.8h-.07a6.17,6.17,0,0,1-2.43,2.43,6.4,6.4,0,0,1-3.28.92c-2.62,0-4.53-.62-5.71-2s-1.77-3.28-1.77-5.89V45.74h4.42V58c0,1.77.33,3,1,3.73a3.65,3.65,0,0,0,2.84,1.1,5.52,5.52,0,0,0,2.32-.44,4,4,0,0,0,1.51-1.14,4.67,4.67,0,0,0,.85-1.73,8.42,8.42,0,0,0,.25-2.18V45.74h4.43v20Zm7.51-6.41a3.5,3.5,0,0,0,1.48,2.73,5.87,5.87,0,0,0,3.06.77,10.85,10.85,0,0,0,1.4-.11,5.76,5.76,0,0,0,1.47-.37,2.51,2.51,0,0,0,1.14-.81,1.89,1.89,0,0,0,.41-1.36,2,2,0,0,0-.63-1.4,5.14,5.14,0,0,0-1.47-.89,13.11,13.11,0,0,0-2.07-.55c-.77-.15-1.54-.33-2.35-.51s-1.62-.41-2.4-.67a6.84,6.84,0,0,1-2.06-1.07,4.55,4.55,0,0,1-1.44-1.69,5.27,5.27,0,0,1-.55-2.54,4.38,4.38,0,0,1,.81-2.73,6,6,0,0,1,2-1.77,9.13,9.13,0,0,1,2.72-1,15.15,15.15,0,0,1,2.84-.26,12.76,12.76,0,0,1,2.95.33,7.37,7.37,0,0,1,2.54,1.07,5.91,5.91,0,0,1,1.88,1.91,6.77,6.77,0,0,1,1,2.84H196a2.83,2.83,0,0,0-1.44-2.14,5.89,5.89,0,0,0-2.61-.55c-.3,0-.7,0-1.11.07a6.69,6.69,0,0,0-1.21.3,2.91,2.91,0,0,0-1,.63,1.44,1.44,0,0,0-.41,1.06,1.61,1.61,0,0,0,.56,1.29,4.91,4.91,0,0,0,1.47.85,12.24,12.24,0,0,0,2.06.55c.78.15,1.59.33,2.4.52a23.53,23.53,0,0,1,2.36.66,6.51,6.51,0,0,1,2.06,1.07,5.23,5.23,0,0,1,1.47,1.66,5.07,5.07,0,0,1,.55,2.47,5.31,5.31,0,0,1-.81,3,6.75,6.75,0,0,1-2.1,2,10.27,10.27,0,0,1-2.87,1.15,15.5,15.5,0,0,1-3.13.36,13,13,0,0,1-3.5-.44,8.6,8.6,0,0,1-2.8-1.29,6.23,6.23,0,0,1-1.84-2.17,7,7,0,0,1-.74-3.1h4.46v0Zm14.56-13.59h3.35V39.69h4.42v6h4V49h-4V59.66c0,.48,0,.85.07,1.22a2.75,2.75,0,0,0,.26.85,1.44,1.44,0,0,0,.63.51,3.25,3.25,0,0,0,1.18.19,7.16,7.16,0,0,0,.92,0,7.65,7.65,0,0,0,.92-.15v3.43c-.48.07-1,.11-1.44.15a12.81,12.81,0,0,1-4.23-.26,4,4,0,0,1-1.66-1A3.41,3.41,0,0,1,206,63a12.66,12.66,0,0,1-.26-2.22V49h-3.35V45.74Zm14.84,0h4.17v2.72h.07a5.43,5.43,0,0,1,2.58-2.5,8.3,8.3,0,0,1,3.61-.78,9.1,9.1,0,0,1,4.13.85,7.72,7.72,0,0,1,2.91,2.29,9.58,9.58,0,0,1,1.73,3.38,15,15,0,0,1,.59,4.13,15.3,15.3,0,0,1-.52,3.91A10.9,10.9,0,0,1,235,63.09a7.87,7.87,0,0,1-2.69,2.32,8,8,0,0,1-3.83.88,11.34,11.34,0,0,1-1.92-.18,8.1,8.1,0,0,1-1.84-.55,6.55,6.55,0,0,1-1.62-1,5.34,5.34,0,0,1-1.25-1.4h-.08v10H217.3V45.74Zm15.44,10a8.92,8.92,0,0,0-.37-2.62,6.69,6.69,0,0,0-1.07-2.25,5.79,5.79,0,0,0-1.73-1.58,4.66,4.66,0,0,0-2.39-.59,4.9,4.9,0,0,0-4.2,1.92,8.72,8.72,0,0,0-1.4,5.15,9.4,9.4,0,0,0,.37,2.8A6.12,6.12,0,0,0,223,60.8a5.27,5.27,0,0,0,1.77,1.48,5,5,0,0,0,2.39.55,4.87,4.87,0,0,0,2.55-.63,5.81,5.81,0,0,0,1.73-1.58,6.6,6.6,0,0,0,1-2.25A12.88,12.88,0,0,0,232.7,55.76Zm7.77-17.65h4.43v4.16h-4.43Zm0,7.63h4.43v20h-4.43Zm8.37-7.63h4.42V65.74h-4.42Zm17.9,28.18a10.39,10.39,0,0,1-4.27-.81,9.76,9.76,0,0,1-3.17-2.17A9.36,9.36,0,0,1,257.35,60a13.18,13.18,0,0,1-.7-4.24,12,12,0,0,1,.7-4.2,9.72,9.72,0,0,1,1.95-3.35A9,9,0,0,1,262.47,46a11.28,11.28,0,0,1,4.27-.81A10.61,10.61,0,0,1,271,46a9.21,9.21,0,0,1,3.16,2.18,9.38,9.38,0,0,1,2,3.35,12.93,12.93,0,0,1,.7,4.2,12,12,0,0,1-.7,4.24,10.42,10.42,0,0,1-2,3.35A8.7,8.7,0,0,1,271,65.48,11,11,0,0,1,266.74,66.29Zm0-3.5a5.14,5.14,0,0,0,2.54-.62,5.4,5.4,0,0,0,1.77-1.62,7,7,0,0,0,1-2.25,9.78,9.78,0,0,0,.34-2.58,9.64,9.64,0,0,0-.34-2.54,6.53,6.53,0,0,0-1-2.25,5.58,5.58,0,0,0-1.77-1.58,5.11,5.11,0,0,0-2.54-.63,5,5,0,0,0-2.54.63,5.51,5.51,0,0,0-1.77,1.58,6.53,6.53,0,0,0-1,2.25,10.06,10.06,0,0,0-.33,2.54,10.2,10.2,0,0,0,.33,2.58,6.61,6.61,0,0,0,1,2.25,5.83,5.83,0,0,0,1.77,1.62A4.84,4.84,0,0,0,266.74,62.79Zm11.42-17h3.36V39.69h4.42v6h4V49h-4V59.66a10.73,10.73,0,0,0,.07,1.22,2.75,2.75,0,0,0,.26.85,1.44,1.44,0,0,0,.63.51,3.23,3.23,0,0,0,1.17.19,7.23,7.23,0,0,0,.93,0,7.65,7.65,0,0,0,.92-.15v3.43c-.48.07-1,.11-1.44.15a12.86,12.86,0,0,1-4.24-.26,4.11,4.11,0,0,1-1.66-1,3.51,3.51,0,0,1-.81-1.58,12.72,12.72,0,0,1-.25-2.22V49h-3.36V45.74Z"/><path class="cls-1" d="M121.81,38.11H101.58L95.36,18.88,89.09,38.11l-20.22,0L85.22,50,79,69.2,95.32,57.3l16.36,11.9L105.45,50Z"/><path class="cls-2" d="M106.85,54.32,105.45,50,95.36,57.3Z"/><rect class="cls-3" x="271.37" y="76.25" width="18.48" height="18.48"/><path class="cls-4" d="M287.74,83.86h-5.61l-1.73-5.33-1.74,5.33h-5.61l4.54,3.31-1.74,5.33,4.54-3.3,4.54,3.3-1.73-5.33Z"/><path class="cls-3" d="M283.59,88.36l-.39-1.2-2.8,2Z"/><rect class="cls-3" x="251" y="76.25" width="18.48" height="18.48"/><path class="cls-4" d="M267.36,83.86h-5.61L260,78.53l-1.74,5.33h-5.61l4.54,3.31-1.74,5.33,4.54-3.3,4.54,3.3-1.73-5.33Z"/><path class="cls-3" d="M263.21,88.36l-.39-1.2-2.8,2Z"/><rect class="cls-3" x="230.62" y="76.25" width="18.48" height="18.48"/><path class="cls-4" d="M247,83.86h-5.62l-1.72-5.33-1.74,5.33H232.3l4.54,3.31-1.74,5.33,4.54-3.3,4.54,3.3-1.73-5.33Z"/><path class="cls-3" d="M242.84,88.36l-.39-1.2-2.8,2Z"/><rect class="cls-3" x="210.25" y="76.25" width="18.48" height="18.48"/><path class="cls-4" d="M226.61,83.86H221l-1.73-5.33-1.74,5.33h-5.61l4.54,3.31-1.74,5.33,4.54-3.3,4.54,3.3-1.73-5.33Z"/><path class="cls-3" d="M222.46,88.36l-.39-1.2-2.8,2Z"/><rect class="cls-3" x="189.87" y="76.25" width="18.48" height="18.48"/><path class="cls-4" d="M206.24,83.86h-5.62l-1.72-5.33-1.74,5.33h-5.62l4.54,3.31-1.73,5.33,4.53-3.3,4.54,3.3-1.72-5.33Z"/><path class="cls-3" d="M202.08,88.36l-.38-1.2-2.8,2Z"/><text class="cls-5" transform="translate(134.47 92.49)">E<tspan class="cls-6" x="6.32" y="0">x</tspan><tspan class="cls-7" x="12.07" y="0">c</tspan><tspan class="cls-8" x="17.74" y="0">elle</tspan><tspan class="cls-9" x="36.67" y="0">n</tspan><tspan x="43.75" y="0">t</tspan></text><text class="cls-10" transform="translate(134.47 111.91)">based on <tspan class="cls-11" x="51.87" y="0">6,173</tspan><tspan x="80.88" y="0"> </tspan><tspan class="cls-12" x="83.6" y="0">r</tspan><tspan x="87.67" y="0">evie</tspan><tspan class="cls-7" x="109.72" y="0">w</tspan><tspan x="119.09" y="0">s</tspan></text><line class="cls-13" x1="34.8" x2="34.8" y2="33.76"/><line class="cls-13" x1="34.8" y1="33.76" y2="33.76"/></g></g></svg>