<svg xmlns="http://www.w3.org/2000/svg" viewBox="0 0 44.01 44.01"><defs><style>.cls-1{fill:#eb6b31;}.cls-2{fill:#fff;}</style></defs><g id="Шар_2" data-name="Шар 2"><g id="Layer_1" data-name="Layer 1"><circle class="cls-1" cx="22" cy="22" r="22"/><path class="cls-2" d="M17.21,32.51A15,15,0,0,0,32.3,17.42c0-.23,0-.46,0-.69A10.66,10.66,0,0,0,34.93,14a10.36,10.36,0,0,1-3.05.84,5.36,5.36,0,0,0,2.34-2.93,10.89,10.89,0,0,1-3.37,1.28,5.31,5.31,0,0,0-9,4.84,15,15,0,0,1-10.93-5.54,5.22,5.22,0,0,0-.72,2.66,5.29,5.29,0,0,0,2.36,4.42,5.37,5.37,0,0,1-2.4-.66.13.13,0,0,0,0,.06,5.3,5.3,0,0,0,4.26,5.2,5.38,5.38,0,0,1-1.4.19,4.78,4.78,0,0,1-1-.1,5.32,5.32,0,0,0,5,3.69,10.66,10.66,0,0,1-6.59,2.27c-.43,0-.85,0-1.26-.07a15,15,0,0,0,8.13,2.38"/></g></g></svg>