<svg xmlns="http://www.w3.org/2000/svg" viewBox="0 0 225.18 47.75"><defs><style>.cls-1{fill:#383a3b;}</style></defs><g id="Шар_2" data-name="Шар 2"><g id="Layer_1" data-name="Layer 1"><path class="cls-1" d="M74.23,0V9a4.85,4.85,0,0,0,.41,2.2A3.37,3.37,0,0,0,76,12.52a4.44,4.44,0,0,0,2.19.53,4.85,4.85,0,0,0,2.32-.51,3.18,3.18,0,0,0,1.4-1.36,5.44,5.44,0,0,0,.44-2.4V0h3V9.16A6.11,6.11,0,0,1,83.46,14a7.69,7.69,0,0,1-5.28,1.67,8.57,8.57,0,0,1-3.72-.76,5.51,5.51,0,0,1-2.4-2.2,6.73,6.73,0,0,1-.82-3.39V0Z"/><path class="cls-1" d="M92.74,4.91a6.81,6.81,0,0,1,1.6.19,8.23,8.23,0,0,1,1.59.62V7.89a7.41,7.41,0,0,0-1.65-.8,5,5,0,0,0-1.58-.3,1.63,1.63,0,0,0-.92.22.72.72,0,0,0-.33.63.62.62,0,0,0,.28.46A9.05,9.05,0,0,0,93.24,9a9.52,9.52,0,0,1,2.48,1.65,2.59,2.59,0,0,1,.71,1.82,2.88,2.88,0,0,1-1,2.34,4.26,4.26,0,0,1-2.8.86,8.43,8.43,0,0,1-2.06-.24A6.91,6.91,0,0,1,89,14.79V12.53a7.28,7.28,0,0,0,3.34,1.1,2.23,2.23,0,0,0,1.13-.25.74.74,0,0,0,.43-.65.7.7,0,0,0-.16-.44,1.9,1.9,0,0,0-.46-.41c-.21-.14-.85-.48-1.93-1a5.63,5.63,0,0,1-1.85-1.29,2.54,2.54,0,0,1-.59-1.67,2.58,2.58,0,0,1,1.07-2.18A4.47,4.47,0,0,1,92.74,4.91Z"/><path class="cls-1" d="M104.27,4.91a4.62,4.62,0,0,1,3.6,1.46,5.77,5.77,0,0,1,1.32,4v.41H101.9a3.16,3.16,0,0,0,1,2.12,3.52,3.52,0,0,0,2.38.75,5.38,5.38,0,0,0,1.87-.34,8.23,8.23,0,0,0,1.86-1v2a7.44,7.44,0,0,1-4.39,1.28,5.55,5.55,0,0,1-4-1.47,5.14,5.14,0,0,1-1.54-3.91,5.35,5.35,0,0,1,1.42-3.84A5,5,0,0,1,104.27,4.91Zm2.37,4.25A3,3,0,0,0,106,7.4a2,2,0,0,0-1.58-.63,2.29,2.29,0,0,0-1.65.6,3,3,0,0,0-.79,1.79Z"/><path class="cls-1" d="M121.31,0,125,5.15,128.82,0h3.54l-5.83,7.78v7.64h-3V7.76L117.69,0Z"/><path class="cls-1" d="M137.8,4.91a6.43,6.43,0,0,1,2.92.67,4.88,4.88,0,0,1,2,1.89,5.3,5.3,0,0,1,.72,2.75,5.51,5.51,0,0,1-.69,2.8,4.79,4.79,0,0,1-2,1.9,6.26,6.26,0,0,1-2.95.7,6.15,6.15,0,0,1-3-.7,4.82,4.82,0,0,1-2-1.9,5.51,5.51,0,0,1-.69-2.8,5.27,5.27,0,0,1,.73-2.76,5,5,0,0,1,2-1.88A6.22,6.22,0,0,1,137.8,4.91ZM135,10.22a3.76,3.76,0,0,0,.76,2.47,2.49,2.49,0,0,0,2,.92,2.61,2.61,0,0,0,2.09-.88,3.75,3.75,0,0,0,.76-2.53,3.45,3.45,0,0,0-.77-2.42,2.65,2.65,0,0,0-2.08-.86,2.52,2.52,0,0,0-2,.91A3.57,3.57,0,0,0,135,10.22Z"/><path class="cls-1" d="M149.39,5.11v6.38a2.15,2.15,0,0,0,.5,1.53,1.76,1.76,0,0,0,1.33.52,2.34,2.34,0,0,0,1.32-.42,3,3,0,0,0,1-1.18V5.11h2.72V15.42h-2.72V14a4.32,4.32,0,0,1-3.18,1.6,3.5,3.5,0,0,1-2.67-1.08,4,4,0,0,1-1-2.83V5.11Z"/><path class="cls-1" d="M166,4.91a2.52,2.52,0,0,1,1.06.24,6.33,6.33,0,0,1,1.22.82l-1,2.37a3.64,3.64,0,0,0-1.9-.88,2,2,0,0,0-1.24.47,3.28,3.28,0,0,0-1,1.24,3.52,3.52,0,0,0-.37,1.55v4.7h-2.72V5.11h2.72V7.74h0a7.15,7.15,0,0,1,1.49-2.16A2.41,2.41,0,0,1,166,4.91Z"/><path class="cls-1" d="M5.55,27.13a5.21,5.21,0,0,1,3.55,1.2,4,4,0,0,1,1.36,3.13,3.91,3.91,0,0,1-.67,2.29,4.46,4.46,0,0,1-2,1.54,4.51,4.51,0,0,1,1.31,1.09,13.22,13.22,0,0,1,1.43,2.3q1.41,2.81,2.1,3.87H9.28c-.22-.34-.53-.88-.92-1.63a35.67,35.67,0,0,0-1.88-3.31,4.56,4.56,0,0,0-1.15-1.22A2.27,2.27,0,0,0,4.06,36H3v6.52H0V27.13Zm-.67,6.58a2.71,2.71,0,0,0,1.84-.59,2,2,0,0,0,.66-1.6,1.89,1.89,0,0,0-.66-1.58,3,3,0,0,0-1.89-.53H3v4.3Z"/><path class="cls-1" d="M19.51,32a4.62,4.62,0,0,1,3.6,1.46,5.76,5.76,0,0,1,1.32,4v.41H17.14a3.18,3.18,0,0,0,1,2.13,3.57,3.57,0,0,0,2.38.74,5.42,5.42,0,0,0,1.87-.33,8.65,8.65,0,0,0,1.86-1v2a7.38,7.38,0,0,1-4.4,1.29,5.54,5.54,0,0,1-4-1.47,5.14,5.14,0,0,1-1.55-3.91,5.32,5.32,0,0,1,1.43-3.84A5,5,0,0,1,19.51,32Zm2.37,4.25a3,3,0,0,0-.68-1.76,2,2,0,0,0-1.58-.64A2.27,2.27,0,0,0,18,34.5a3,3,0,0,0-.79,1.79Z"/><path class="cls-1" d="M29.16,32.24l2.4,5.95L34,32.24h1.76l2.42,5.95,2.39-5.95H43.4L38.81,42.75H37.66l-2.78-6.31L32.1,42.75H31L26.33,32.24Z"/><path class="cls-1" d="M49.6,32a4.75,4.75,0,0,1,3,.84,2.87,2.87,0,0,1,1,2.36v5c0,.39.16.59.48.59a1.49,1.49,0,0,0,.55-.17,2.83,2.83,0,0,0,.6-.39v1.56a5,5,0,0,1-2.6.88,2.14,2.14,0,0,1-1.12-.25,1.37,1.37,0,0,1-.55-.86,5.33,5.33,0,0,1-3.12,1.11A2.73,2.73,0,0,1,46,42a2.41,2.41,0,0,1-.8-1.8,2.8,2.8,0,0,1,.8-2.11,6.68,6.68,0,0,1,2.78-1.35L51,36.1v-.47c0-1-.61-1.52-1.84-1.52a4.5,4.5,0,0,0-1.86.43,5.33,5.33,0,0,0-1.69,1.27V33.37A6.27,6.27,0,0,1,49.6,32Zm-1.66,7.75a1.19,1.19,0,0,0,.36.9,1.22,1.22,0,0,0,.89.34A2.71,2.71,0,0,0,51,40.22V37.5a12.69,12.69,0,0,0-1.79.73,3.34,3.34,0,0,0-.95.7A1.27,1.27,0,0,0,47.94,39.79Z"/><path class="cls-1" d="M63.83,32a2.52,2.52,0,0,1,1.06.24,5.89,5.89,0,0,1,1.22.82l-1,2.37a3.56,3.56,0,0,0-1.9-.88,2,2,0,0,0-1.24.47,3.3,3.3,0,0,0-1,1.24,3.48,3.48,0,0,0-.37,1.54v4.71H57.93V32.24h2.72v2.62h0a7.22,7.22,0,0,1,1.49-2.15A2.41,2.41,0,0,1,63.83,32Z"/><path class="cls-1" d="M75,32.47V27.13h2.7V42.55H73a5.48,5.48,0,0,1-4-1.43,5.12,5.12,0,0,1-1.48-3.88,5.19,5.19,0,0,1,.69-2.65,4.88,4.88,0,0,1,1.9-1.87A5.14,5.14,0,0,1,72.72,32,6.93,6.93,0,0,1,75,32.47Zm-1.43,8H75v-6a3.74,3.74,0,0,0-1.75-.43,2.85,2.85,0,0,0-2.17.85,3.1,3.1,0,0,0-.81,2.23Q70.3,40.47,73.6,40.47Z"/><path class="cls-1" d="M95.29,27.13a5,5,0,0,1,3.52,1.25,4.2,4.2,0,0,1,1.35,3.23,4.15,4.15,0,0,1-1.37,3.23,5.16,5.16,0,0,1-3.61,1.24H92.31v6.47h-3V27.13Zm-.74,6.62a2.83,2.83,0,0,0,1.86-.55,1.94,1.94,0,0,0,.67-1.61c0-1.42-.91-2.13-2.74-2.13h-2v4.29Z"/><path class="cls-1" d="M107.76,32a6.28,6.28,0,0,1,2.92.67,4.88,4.88,0,0,1,2,1.89,5.3,5.3,0,0,1,.72,2.75,5.51,5.51,0,0,1-.69,2.8,4.85,4.85,0,0,1-2,1.9,6.38,6.38,0,0,1-2.95.7,6.27,6.27,0,0,1-3-.7,4.89,4.89,0,0,1-2-1.9,5.51,5.51,0,0,1-.69-2.8,5.33,5.33,0,0,1,.73-2.77,5,5,0,0,1,2-1.87A6.22,6.22,0,0,1,107.76,32ZM105,37.35a3.76,3.76,0,0,0,.76,2.47,2.49,2.49,0,0,0,2,.92,2.61,2.61,0,0,0,2.09-.89,3.74,3.74,0,0,0,.76-2.52,3.48,3.48,0,0,0-.77-2.43,2.64,2.64,0,0,0-2.08-.85,2.5,2.5,0,0,0-2,.9A3.55,3.55,0,0,0,105,37.35Z"/><path class="cls-1" d="M118.18,27.47A1.55,1.55,0,0,1,119.72,29a1.51,1.51,0,0,1-.45,1.08,1.46,1.46,0,0,1-1.09.47,1.49,1.49,0,0,1-1.08-.47,1.51,1.51,0,0,1-.45-1.08,1.43,1.43,0,0,1,.46-1.08A1.5,1.5,0,0,1,118.18,27.47Zm1.36,4.77V42.55h-2.72V32.24Z"/><path class="cls-1" d="M129.44,32a3.39,3.39,0,0,1,2.65,1.09,4.08,4.08,0,0,1,1,2.86v6.56h-2.71V36.27a2.43,2.43,0,0,0-.48-1.59,1.6,1.6,0,0,0-1.31-.59,2.06,2.06,0,0,0-1.18.37,5.64,5.64,0,0,0-1.21,1.23v6.86h-2.72V32.24h2.72v1.44a4.71,4.71,0,0,1,1.54-1.26A3.93,3.93,0,0,1,129.44,32Z"/><path class="cls-1" d="M139.66,29.5h.22v2.74h3.53v2h-3.53v4.76a1.46,1.46,0,0,0,1.57,1.55,4.57,4.57,0,0,0,2.18-.68v2.17a6.76,6.76,0,0,1-2.76.66,3.75,3.75,0,0,1-2.72-1,3.44,3.44,0,0,1-1-2.58V34.29h-1.62v-.44Z"/><path class="cls-1" d="M149.65,32a6.32,6.32,0,0,1,1.6.19,8.16,8.16,0,0,1,1.59.61V35a7.41,7.41,0,0,0-1.65-.8,5,5,0,0,0-1.58-.3,1.63,1.63,0,0,0-.92.22.69.69,0,0,0-.33.62.63.63,0,0,0,.28.47,10.47,10.47,0,0,0,1.51.85,9,9,0,0,1,2.48,1.65,2.56,2.56,0,0,1,.71,1.81,2.88,2.88,0,0,1-1,2.35,4.26,4.26,0,0,1-2.8.86,8.42,8.42,0,0,1-2.06-.25,6.65,6.65,0,0,1-1.58-.58V39.66a7.31,7.31,0,0,0,3.34,1.1,2.23,2.23,0,0,0,1.13-.25.76.76,0,0,0,.43-.66.66.66,0,0,0-.16-.44,2.13,2.13,0,0,0-.46-.41c-.21-.14-.85-.47-1.93-1a5.6,5.6,0,0,1-1.85-1.3,2.5,2.5,0,0,1-.59-1.66,2.58,2.58,0,0,1,1.07-2.18A4.47,4.47,0,0,1,149.65,32Z"/><path class="cls-1" d="M175.54,27.13v2.33h-5.48V42.55h-3V29.46h-5.47V27.13Z"/><path class="cls-1" d="M181.21,32a6.32,6.32,0,0,1,2.93.67,4.94,4.94,0,0,1,2,1.89,5.3,5.3,0,0,1,.72,2.75,5.51,5.51,0,0,1-.69,2.8,4.85,4.85,0,0,1-2,1.9,6.4,6.4,0,0,1-3,.7,6.26,6.26,0,0,1-2.94-.7,4.83,4.83,0,0,1-2-1.9,5.51,5.51,0,0,1-.69-2.8,5.23,5.23,0,0,1,.73-2.77,5,5,0,0,1,2-1.87A6.18,6.18,0,0,1,181.21,32Zm-2.8,5.31a3.76,3.76,0,0,0,.76,2.47,2.49,2.49,0,0,0,2,.92,2.63,2.63,0,0,0,2.09-.89,3.74,3.74,0,0,0,.76-2.52,3.52,3.52,0,0,0-.77-2.43,2.64,2.64,0,0,0-2.08-.85,2.54,2.54,0,0,0-2,.9A3.6,3.6,0,0,0,178.41,37.35Z"/><path class="cls-1" d="M197.16,32.47V27.13h2.7V42.55h-4.77a5.44,5.44,0,0,1-4-1.43,5.12,5.12,0,0,1-1.49-3.88,5.19,5.19,0,0,1,.69-2.65,4.88,4.88,0,0,1,1.9-1.87,5.16,5.16,0,0,1,2.61-.68A6.93,6.93,0,0,1,197.16,32.47Zm-1.43,8h1.43v-6a3.74,3.74,0,0,0-1.75-.43,2.85,2.85,0,0,0-2.17.85,3.1,3.1,0,0,0-.81,2.23Q192.43,40.47,195.73,40.47Z"/><path class="cls-1" d="M207.42,32a4.75,4.75,0,0,1,3,.84,2.87,2.87,0,0,1,1.05,2.36v5c0,.39.16.59.47.59a1.47,1.47,0,0,0,.56-.17,2.83,2.83,0,0,0,.6-.39v1.56a5,5,0,0,1-2.6.88,2.14,2.14,0,0,1-1.12-.25,1.33,1.33,0,0,1-.55-.86,5.36,5.36,0,0,1-3.12,1.11,2.71,2.71,0,0,1-1.92-.75,2.41,2.41,0,0,1-.8-1.8,2.8,2.8,0,0,1,.8-2.11,6.62,6.62,0,0,1,2.78-1.35l2.2-.64v-.47c0-1-.62-1.52-1.84-1.52a4.5,4.5,0,0,0-1.86.43,5.33,5.33,0,0,0-1.69,1.27V33.37A6.25,6.25,0,0,1,207.42,32Zm-1.66,7.75a1.19,1.19,0,0,0,.36.9A1.22,1.22,0,0,0,207,41a2.71,2.71,0,0,0,1.79-.81V37.5a12.69,12.69,0,0,0-1.79.73,3.34,3.34,0,0,0-.95.7A1.27,1.27,0,0,0,205.76,39.79Z"/><path class="cls-1" d="M217.35,32.24l2.44,5.54,2.48-5.54h2.91l-7.12,15.51h-2.91l3.27-7.1-4-8.41Z"/></g></g></svg>