<svg xmlns="http://www.w3.org/2000/svg" viewBox="0 0 310.99 88.54"><defs><style>.cls-1{fill:none;stroke:#515356;stroke-miterlimit:10;stroke-width:0.5px;}.cls-2{fill:#242323;}.cls-3{fill:#fff;}</style></defs><g id="Шар_2" data-name="Шар 2"><g id="Layer_1" data-name="Layer 1"><line class="cls-1" x1="232.44" x2="232.44" y2="5.68"/><line class="cls-1" x1="235.29" y1="2.84" x2="229.6" y2="2.84"/><line class="cls-1" x1="247.58" x2="247.58" y2="5.68"/><line class="cls-1" x1="250.43" y1="2.84" x2="244.74" y2="2.84"/><line class="cls-1" x1="262.73" x2="262.73" y2="5.68"/><line class="cls-1" x1="265.57" y1="2.84" x2="259.88" y2="2.84"/><line class="cls-1" x1="277.87" x2="277.87" y2="5.68"/><line class="cls-1" x1="280.71" y1="2.84" x2="275.03" y2="2.84"/><line class="cls-1" x1="293.01" x2="293.01" y2="5.68"/><line class="cls-1" x1="295.85" y1="2.84" x2="290.17" y2="2.84"/><line class="cls-1" x1="308.15" x2="308.15" y2="5.68"/><line class="cls-1" x1="310.99" y1="2.84" x2="305.31" y2="2.84"/><line class="cls-1" x1="232.44" y1="13.81" x2="232.44" y2="19.49"/><line class="cls-1" x1="235.29" y1="16.65" x2="229.6" y2="16.65"/><line class="cls-1" x1="247.58" y1="13.81" x2="247.58" y2="19.49"/><line class="cls-1" x1="250.43" y1="16.65" x2="244.74" y2="16.65"/><line class="cls-1" x1="262.73" y1="13.81" x2="262.73" y2="19.49"/><line class="cls-1" x1="265.57" y1="16.65" x2="259.88" y2="16.65"/><line class="cls-1" x1="277.87" y1="13.81" x2="277.87" y2="19.49"/><line class="cls-1" x1="280.71" y1="16.65" x2="275.03" y2="16.65"/><line class="cls-1" x1="293.01" y1="13.81" x2="293.01" y2="19.49"/><line class="cls-1" x1="295.85" y1="16.65" x2="290.17" y2="16.65"/><line class="cls-1" x1="308.15" y1="13.81" x2="308.15" y2="19.49"/><line class="cls-1" x1="310.99" y1="16.65" x2="305.31" y2="16.65"/><line class="cls-1" x1="232.44" y1="27.62" x2="232.44" y2="33.3"/><line class="cls-1" x1="235.29" y1="30.46" x2="229.6" y2="30.46"/><line class="cls-1" x1="247.58" y1="27.62" x2="247.58" y2="33.3"/><line class="cls-1" x1="250.43" y1="30.46" x2="244.74" y2="30.46"/><line class="cls-1" x1="262.73" y1="27.62" x2="262.73" y2="33.3"/><line class="cls-1" x1="265.57" y1="30.46" x2="259.88" y2="30.46"/><line class="cls-1" x1="277.87" y1="27.62" x2="277.87" y2="33.3"/><line class="cls-1" x1="280.71" y1="30.46" x2="275.03" y2="30.46"/><line class="cls-1" x1="293.01" y1="27.62" x2="293.01" y2="33.3"/><line class="cls-1" x1="295.85" y1="30.46" x2="290.17" y2="30.46"/><line class="cls-1" x1="308.15" y1="27.62" x2="308.15" y2="33.3"/><line class="cls-1" x1="310.99" y1="30.46" x2="305.31" y2="30.46"/><line class="cls-1" x1="232.44" y1="41.43" x2="232.44" y2="47.11"/><line class="cls-1" x1="235.29" y1="44.27" x2="229.6" y2="44.27"/><line class="cls-1" x1="247.58" y1="41.43" x2="247.58" y2="47.11"/><line class="cls-1" x1="250.43" y1="44.27" x2="244.74" y2="44.27"/><line class="cls-1" x1="262.73" y1="41.43" x2="262.73" y2="47.11"/><line class="cls-1" x1="265.57" y1="44.27" x2="259.88" y2="44.27"/><line class="cls-1" x1="277.87" y1="41.43" x2="277.87" y2="47.11"/><line class="cls-1" x1="280.71" y1="44.27" x2="275.03" y2="44.27"/><line class="cls-1" x1="293.01" y1="41.43" x2="293.01" y2="47.11"/><line class="cls-1" x1="295.85" y1="44.27" x2="290.17" y2="44.27"/><line class="cls-1" x1="308.15" y1="41.43" x2="308.15" y2="47.11"/><line class="cls-1" x1="310.99" y1="44.27" x2="305.31" y2="44.27"/><line class="cls-1" x1="232.44" y1="55.24" x2="232.44" y2="60.92"/><line class="cls-1" x1="235.29" y1="58.08" x2="229.6" y2="58.08"/><line class="cls-1" x1="247.58" y1="55.24" x2="247.58" y2="60.92"/><line class="cls-1" x1="250.43" y1="58.08" x2="244.74" y2="58.08"/><line class="cls-1" x1="262.73" y1="55.24" x2="262.73" y2="60.92"/><line class="cls-1" x1="265.57" y1="58.08" x2="259.88" y2="58.08"/><line class="cls-1" x1="277.87" y1="55.24" x2="277.87" y2="60.92"/><line class="cls-1" x1="280.71" y1="58.08" x2="275.03" y2="58.08"/><line class="cls-1" x1="293.01" y1="55.24" x2="293.01" y2="60.92"/><line class="cls-1" x1="295.85" y1="58.08" x2="290.17" y2="58.08"/><line class="cls-1" x1="308.15" y1="55.24" x2="308.15" y2="60.92"/><line class="cls-1" x1="310.99" y1="58.08" x2="305.31" y2="58.08"/><line class="cls-1" x1="232.44" y1="69.05" x2="232.44" y2="74.73"/><line class="cls-1" x1="235.29" y1="71.89" x2="229.6" y2="71.89"/><line class="cls-1" x1="247.58" y1="69.05" x2="247.58" y2="74.73"/><line class="cls-1" x1="250.43" y1="71.89" x2="244.74" y2="71.89"/><line class="cls-1" x1="262.73" y1="69.05" x2="262.73" y2="74.73"/><line class="cls-1" x1="265.57" y1="71.89" x2="259.88" y2="71.89"/><line class="cls-1" x1="277.87" y1="69.05" x2="277.87" y2="74.73"/><line class="cls-1" x1="280.71" y1="71.89" x2="275.03" y2="71.89"/><line class="cls-1" x1="293.01" y1="69.05" x2="293.01" y2="74.73"/><line class="cls-1" x1="295.85" y1="71.89" x2="290.17" y2="71.89"/><line class="cls-1" x1="308.15" y1="69.05" x2="308.15" y2="74.73"/><line class="cls-1" x1="310.99" y1="71.89" x2="305.31" y2="71.89"/><line class="cls-1" x1="232.44" y1="82.86" x2="232.44" y2="88.54"/><line class="cls-1" x1="235.29" y1="85.7" x2="229.6" y2="85.7"/><line class="cls-1" x1="247.58" y1="82.86" x2="247.58" y2="88.54"/><line class="cls-1" x1="250.43" y1="85.7" x2="244.74" y2="85.7"/><line class="cls-1" x1="262.73" y1="82.86" x2="262.73" y2="88.54"/><line class="cls-1" x1="265.57" y1="85.7" x2="259.88" y2="85.7"/><line class="cls-1" x1="277.87" y1="82.86" x2="277.87" y2="88.54"/><line class="cls-1" x1="280.71" y1="85.7" x2="275.03" y2="85.7"/><line class="cls-1" x1="293.01" y1="82.86" x2="293.01" y2="88.54"/><line class="cls-1" x1="295.85" y1="85.7" x2="290.17" y2="85.7"/><line class="cls-1" x1="308.15" y1="82.86" x2="308.15" y2="88.54"/><line class="cls-1" x1="310.99" y1="85.7" x2="305.31" y2="85.7"/><rect class="cls-2" y="36.31" width="259.65" height="26.4"/><path class="cls-3" d="M9.74,42.51l2.72,6.73,2.86-6.73H17.1L20,49.26l2.71-6.75h2.15L20.35,53.56h-.71L16.2,45.47l-3.45,8.09h-.69L7.56,42.51Z"/><path class="cls-3" d="M32.18,42.37a6.5,6.5,0,0,1,3,.7,5.23,5.23,0,0,1,2.16,2,5.52,5.52,0,0,1-2.13,7.76,6.58,6.58,0,0,1-3.09.72,6.45,6.45,0,0,1-3.08-.73,5.49,5.49,0,0,1-2.16-7.68,5.26,5.26,0,0,1,2.13-2A6.45,6.45,0,0,1,32.18,42.37ZM28.33,48a4,4,0,0,0,.49,2,3.4,3.4,0,0,0,1.37,1.34,4.1,4.1,0,0,0,2,.48,3.8,3.8,0,0,0,2.76-1.05A3.62,3.62,0,0,0,36,48a4,4,0,0,0-.49-2,3.45,3.45,0,0,0-1.38-1.35,4.21,4.21,0,0,0-2-.47,4.14,4.14,0,0,0-2,.48A3.37,3.37,0,0,0,28.81,46,4,4,0,0,0,28.33,48Z"/><path class="cls-3" d="M44.91,42.51a3.63,3.63,0,0,1,2.5.85,2.81,2.81,0,0,1,1,2.22,2.77,2.77,0,0,1-.48,1.62,3.2,3.2,0,0,1-1.42,1.09,3.49,3.49,0,0,1,.93.76,10.13,10.13,0,0,1,1,1.64c.67,1.32,1.16,2.23,1.49,2.73H47.55a11.62,11.62,0,0,1-.66-1.15,25.4,25.4,0,0,0-1.33-2.35,3,3,0,0,0-.81-.85,1.61,1.61,0,0,0-.9-.26h-.76v4.61H41V42.51Zm-.48,4.65a1.9,1.9,0,0,0,1.3-.41,1.44,1.44,0,0,0,.47-1.13,1.34,1.34,0,0,0-.47-1.13,2.13,2.13,0,0,0-1.33-.37H43.09v3Z"/><path class="cls-3" d="M60.34,42.51v1.65H56.46v9.26H54.35V44.16H50.48V42.51Z"/><path class="cls-3" d="M64.85,42.51V47.1h5.66V42.51h2.11V53.42H70.51V48.81H64.85v4.61H62.74V42.51Z"/><path class="cls-3" d="M86.67,42.37a6.53,6.53,0,0,1,3,.7,5.35,5.35,0,0,1,2.16,2,5.59,5.59,0,0,1,0,5.73,5.42,5.42,0,0,1-2.16,2,6.52,6.52,0,0,1-3.09.72,6.45,6.45,0,0,1-3.08-.73,5.47,5.47,0,0,1-2.16-2A5.38,5.38,0,0,1,80.64,48a5.44,5.44,0,0,1,.77-2.82,5.38,5.38,0,0,1,2.13-2A6.49,6.49,0,0,1,86.67,42.37ZM82.82,48a3.87,3.87,0,0,0,.49,2,3.34,3.34,0,0,0,1.37,1.34,4.07,4.07,0,0,0,2,.48,3.8,3.8,0,0,0,2.76-1.05A3.65,3.65,0,0,0,90.51,48,3.88,3.88,0,0,0,90,46a3.36,3.36,0,0,0-1.37-1.35,4.25,4.25,0,0,0-2-.47,4.1,4.1,0,0,0-2,.48A3.34,3.34,0,0,0,83.29,46,4,4,0,0,0,82.82,48Z"/><path class="cls-3" d="M102.12,42.51v1.65H97.57V47h4.55v1.66H97.57v4.78H95.46V42.51Z"/><path class="cls-3" d="M114,42.51a3.64,3.64,0,0,1,2.51.85,2.81,2.81,0,0,1,1,2.22A2.77,2.77,0,0,1,117,47.2a3.23,3.23,0,0,1-1.43,1.09,3.21,3.21,0,0,1,.93.76,10,10,0,0,1,1,1.64c.67,1.32,1.16,2.23,1.49,2.73h-2.36a12,12,0,0,1-.65-1.15c-.61-1.16-1-1.94-1.33-2.35a3,3,0,0,0-.81-.85,1.61,1.61,0,0,0-.9-.26h-.77v4.61h-2.11V42.51Zm-.47,4.65a1.9,1.9,0,0,0,1.3-.41,1.44,1.44,0,0,0,.47-1.13,1.37,1.37,0,0,0-.47-1.13,2.15,2.15,0,0,0-1.33-.37h-1.32v3Z"/><path class="cls-3" d="M128.24,42.51v1.65H123.3V47H128v1.65H123.3v3.1h5v1.65h-7.16V42.51Z"/><path class="cls-3" d="M132.16,42.51l2.72,6.73,2.86-6.73h1.78l2.87,6.75,2.71-6.75h2.16l-4.49,11.05h-.71l-3.44-8.09-3.45,8.09h-.69L130,42.51Z"/><path class="cls-3" d="M153.58,42.51l4.82,10.91h-2.23L155,50.76h-4.85l-1.06,2.66h-2.21l4.5-10.91Zm-2.75,6.65h3.52l-1.84-4.32Z"/><path class="cls-3" d="M164.41,42.51a3.67,3.67,0,0,1,2.51.85,2.84,2.84,0,0,1,1,2.22,2.77,2.77,0,0,1-.49,1.62A3.2,3.2,0,0,1,166,48.29a3.21,3.21,0,0,1,.93.76,10.77,10.77,0,0,1,1,1.64c.66,1.32,1.16,2.23,1.48,2.73h-2.35c-.16-.24-.38-.62-.66-1.15a23.2,23.2,0,0,0-1.33-2.35,3,3,0,0,0-.81-.85,1.61,1.61,0,0,0-.9-.26h-.76v4.61h-2.11V42.51Zm-.48,4.65a1.88,1.88,0,0,0,1.3-.41,1.42,1.42,0,0,0,.48-1.13,1.37,1.37,0,0,0-.47-1.13,2.18,2.18,0,0,0-1.34-.37h-1.31v3Z"/><path class="cls-3" d="M176.15,42.51a6.45,6.45,0,0,1,3,.69,5.08,5.08,0,0,1,2.07,2A5.46,5.46,0,0,1,182,48a5.35,5.35,0,0,1-.74,2.84,4.92,4.92,0,0,1-2.09,1.92,7,7,0,0,1-3.12.68h-4.45V42.51Zm-.22,9.26a3.8,3.8,0,0,0,2.81-1.05,4.15,4.15,0,0,0,0-5.54,4,4,0,0,0-2.88-1h-2.17v7.61Z"/><path class="cls-3" d="M194.21,42.51a3.53,3.53,0,0,1,2.49.88,3,3,0,0,1,1,2.29,2.94,2.94,0,0,1-1,2.29,3.67,3.67,0,0,1-2.55.87h-2v4.58H190V42.51Zm-.52,4.68a2,2,0,0,0,1.32-.38,1.41,1.41,0,0,0,.47-1.15c0-1-.65-1.5-1.94-1.5H192.1v3Z"/><path class="cls-3" d="M205.73,42.37a6.5,6.5,0,0,1,3.05.7,5.23,5.23,0,0,1,2.16,2,5.52,5.52,0,0,1-2.13,7.76,6.58,6.58,0,0,1-3.09.72,6.45,6.45,0,0,1-3.08-.73,5.51,5.51,0,0,1-2.17-7.68,5.34,5.34,0,0,1,2.14-2A6.45,6.45,0,0,1,205.73,42.37ZM201.88,48a4,4,0,0,0,.49,2,3.4,3.4,0,0,0,1.37,1.34,4.1,4.1,0,0,0,2,.48,3.8,3.8,0,0,0,2.76-1.05A3.62,3.62,0,0,0,209.58,48a4,4,0,0,0-.49-2,3.45,3.45,0,0,0-1.38-1.35,4.21,4.21,0,0,0-2-.47,4.14,4.14,0,0,0-2,.48A3.37,3.37,0,0,0,202.36,46,4,4,0,0,0,201.88,48Z"/><path class="cls-3" d="M216.68,42.51V53.42h-2.11V42.51Z"/><path class="cls-3" d="M221.79,42.51l6.48,7.61V42.51h2.06V53.42h-1.81L222,45.68v7.74h-2.07V42.51Z"/><path class="cls-3" d="M242.59,42.51v1.65h-3.88v9.26H236.6V44.16h-3.87V42.51Z"/><path class="cls-3" d="M248,42.37a6.41,6.41,0,0,1,3.07.79V45a6.07,6.07,0,0,0-3-1,2.24,2.24,0,0,0-1.25.31,1,1,0,0,0-.45.83q0,.62.84,1.14c.15.1.76.39,1.8.87a5,5,0,0,1,1.94,1.41,2.92,2.92,0,0,1,.59,1.86,2.82,2.82,0,0,1-1,2.27,3.92,3.92,0,0,1-2.62.86,6.3,6.3,0,0,1-1.8-.23,7.79,7.79,0,0,1-1.69-.79V50.46a5.31,5.31,0,0,0,3.3,1.45,2.17,2.17,0,0,0,1.25-.33,1.06,1.06,0,0,0,.47-.89,1.4,1.4,0,0,0-.83-1.24c-.45-.25-1-.55-1.77-.9a5.15,5.15,0,0,1-1.92-1.36,2.77,2.77,0,0,1-.64-1.82,2.68,2.68,0,0,1,1-2.19A4.25,4.25,0,0,1,248,42.37Z"/></g></g></svg>